Patient4_TMGait_0pt6_02_left_03_EMG.mot
version=1
nRows=13
nColumns=33
inDegrees=no
endheader
time	1LAddLong	2LGlutMax	3LGlutMed	4LIliopsoas	5LSemiMemb	6LBicFemLong	7LRecFem	8LVastMed	9LVastLat	10LGasMed	11LTibAnt	12lTibPost	13LPeroneusLong	14LSol	15LExtDigLong	16LFlexDigLong	17RAddLong	18RGlutMax	19RGlutMed	20RIliopsoas	21RSemiMemb	22RBicFemLong	23RRecFem	24RVastMed	25RVastLat	26RGasMed	27RTibAnt	28RTibPost	29RPeroneusLong	30RSol	31RExtDigLong	32RFlexDigLong
3.98	0.049286	0.63065	-0.088959	0.024567	0.083313	0.077972	-1.4905	0.001373	-0.044403	-0.55405	0.01358	-0.008392	0.10391	-0.14847	0.028992	0.090179	-0.043335	-0.47943	-0.24674	-0.084686	0.11246	-0.016937	0.44052	-0.01236	-0.013275	-0.007172	-0.84137	-0.011139	-0.006714	-0.21118	-0.001526	-0.002899
3.981	0.041199	0.63004	0.10941	0.013275	-0.005188	0.20798	-1.5225	0.00061	-0.10498	0.099487	0.013428	0.001068	0.15167	-0.1767	0.053406	0.11276	0.009155	-0.64163	-0.28198	-0.15427	0.11719	-0.009155	0.44601	0.02594	-0.006409	0.007782	-0.24826	-0.006866	0.13321	-0.088501	-0.000916	0.001678
3.982	0.032501	0.52567	0.12772	0.009155	-0.026703	0.31418	-1.4676	0.013428	-0.075836	0.80597	-0.029144	-0.085602	0.30518	-0.20889	0.12039	0.06073	0.013275	-0.71381	-0.2977	-0.25391	0.09903	0.019531	0.43411	-0.005951	-0.010986	0.008392	0.11673	-0.005188	0.066681	-0.061798	-0.00061	0.003204
3.983	0.02594	0.51804	-0.089874	-0.009918	-0.002441	0.31036	-1.4584	0.024567	-0.030212	0.67947	-0.028687	0.34683	0.2182	-0.34653	0.064392	-0.21484	0.003815	-0.87143	-0.29465	-0.27161	0.053101	0.13168	0.45044	0.009003	-0.005188	0.003967	0.18967	-0.011139	-0.015259	-0.11902	0.002441	0.001831
3.984	0.013123	0.55664	-0.19165	-0.012665	-0.008087	0.32181	-1.4586	0.025787	-0.010834	0.26489	-0.022888	0.27588	-0.028381	-0.39368	0.004272	0.039215	0.038452	-0.9494	-0.22369	-0.1799	0.033264	0.17853	0.49484	-0.018768	-0.020294	-0.007782	-0.052643	-0.001373	-0.087738	0.006714	-0.001373	0.001068
3.985	0.014191	0.68954	-0.036011	-0.007782	-0.028687	0.29419	-1.4424	0.021667	0.028992	0.10574	-0.029144	-0.3598	-0.0914	-0.345	0.024414	0.13046	0.049438	-0.98236	-0.2005	0.033264	0.014038	0.11505	0.4602	-0.051422	-0.029144	-0.015717	-0.14969	-0.001373	-0.13275	0.11261	0.007629	0.000305
3.986	-0.003052	0.76843	0.21347	-0.00351	-0.037079	0.014038	-1.4992	0.014191	0.103	0.12024	-0.026703	0.21561	0.11017	-0.52231	0.05188	-0.76614	0.053711	-0.99381	-0.26504	0.085754	-0.0177	0.11566	0.45441	-0.13962	-0.04837	-0.00824	0.042572	-0.001526	0.000458	0.20187	-0.001068	0.004272
3.987	-0.000916	0.87708	0.22156	-0.002441	-0.054626	0.055237	-1.3776	-0.00061	0.29739	0.18249	0.002136	0.12787	0.09613	-0.36224	0.059967	0.10269	0.027008	-1.0805	-0.24948	0.073395	-0.088196	0.121	0.43381	-0.20905	-0.059052	-0.001831	-0.16541	-0.001984	0.1239	0.1178	-0.000916	0.001831
3.988	0.01297	0.90164	0.18387	-0.001068	-0.011902	0.28381	-1.2898	0.007629	0.42313	0.092773	-0.009003	-0.007324	0.15884	0.16251	0.053101	0.16022	-0.005798	-1.2431	-0.10773	0.063782	-0.062256	0.059814	0.37476	-0.20294	-0.077057	-0.007782	-0.35416	-0.00473	0.023346	0.058594	-0.002136	0.008392
3.989	0.007019	0.99548	0.2832	-0.005951	0.037079	0.11902	-1.1784	-0.023804	0.51605	0.1532	0.019989	0.032196	0.14648	0.33676	0.020142	-0.008545	0.001526	-1.2796	-0.1799	-0.001831	0.047607	-0.023499	0.40985	-0.2356	-0.083008	0.005646	-1.1136	-0.008545	0.14084	-0.013123	-0.00473	0.000305
3.99	-0.003204	0.94086	0.33112	0.003967	0.016632	-0.091705	-1.0974	-0.027313	0.52567	-0.027161	0.038452	-0.15823	0.14847	0.20279	0.021667	0.21011	0.045319	-1.3152	-0.096588	-0.020752	0.052948	-0.077209	0.46799	-0.27405	-0.10208	0.006714	-1.456	-0.002594	0.42236	-0.05661	0.001526	-0.000458
3.991	-0.016022	0.82581	0.31326	0.013275	-0.031891	-0.16647	-1.0556	-0.014038	0.49393	0.015564	0.05661	-0.11368	0.12955	0.054016	0.058441	0.023346	0.051727	-1.3992	-0.15259	-0.080566	0.039825	-0.039215	0.41458	-0.26825	-0.079346	-0.003052	-1.2543	-0.002594	0.31189	-0.006866	-0.002136	-0.003204
3.992	-0.022583	0.73975	0.18875	0.018921	-0.11307	-0.066528	-1.0216	0.01709	0.32623	0.1207	0.050507	-0.064697	0.11612	-0.086517	0.074615	-0.056305	0.07843	-1.4778	-0.43564	-0.066833	0.009003	-0.05249	0.39764	-0.24536	-0.076141	-0.011444	-0.65597	-0.01297	0.022888	0.045776	-0.001984	-0.011597
